<svg width="163" height="187" viewBox="0 0 163 187" fill="none" xmlns="http://www.w3.org/2000/svg">
<path d="M86.6953 57.2979C90.1293 68.6642 98.4361 77.9172 109.367 82.5537L141.625 96.2363L109.367 109.919C98.4362 114.555 90.1293 123.809 86.6953 135.175L71.1152 186.746L55.5352 135.175C52.1012 123.809 43.7943 114.555 32.8633 109.919L0.605469 96.2363L32.8633 82.5537C43.7944 77.9172 52.1012 68.6642 55.5352 57.2979L71.1152 5.72656L86.6953 57.2979ZM137.247 9.9043C140.681 21.2705 148.987 30.5236 159.918 35.1602L162.498 36.2549L159.918 37.3486C148.987 41.9852 140.681 51.2392 137.247 62.6055L134.255 72.5098L131.263 62.6055C127.829 51.2391 119.522 41.9852 108.591 37.3486L106.012 36.2549L108.591 35.1602C119.522 30.5236 127.829 21.2706 131.263 9.9043L134.255 0L137.247 9.9043Z" fill="#FFEAA1"/>
</svg>
